<?xml version="1.0" encoding="utf-8"?>
<!-- Generator: Adobe Illustrator 24.0.1, SVG Export Plug-In . SVG Version: 6.00 Build 0)  -->
<svg version="1.1" id="Layer_1" xmlns="http://www.w3.org/2000/svg" xmlns:xlink="http://www.w3.org/1999/xlink" x="0px" y="0px"
	 viewBox="0 0 1366 1366" style="enable-background:new 0 0 1366 1366;" xml:space="preserve">
<style type="text/css">
	.st0{fill:#FFFFFF;}
	.st1{font-family:'MyriadPro-Regular';}
	.st2{font-size:951.9729px;}
</style>
<g>
	<path d="M688,1251.5c-76.88,0-151.46-15.06-221.67-44.75C398.51,1178.06,337.6,1137,285.3,1084.7
		c-52.3-52.3-93.37-113.21-122.05-181.02C133.56,833.46,118.5,758.88,118.5,682c0-76.88,15.06-151.46,44.75-221.67
		C191.94,392.51,233,331.6,285.3,279.3c52.3-52.3,113.21-93.37,181.02-122.05c70.21-29.7,144.79-44.75,221.67-44.75
		c76.88,0,151.46,15.06,221.67,44.75C977.49,185.94,1038.4,227,1090.7,279.3c52.3,52.3,93.37,113.21,122.05,181.02
		c29.7,70.21,44.75,144.79,44.75,221.67c0,76.88-15.06,151.46-44.75,221.67c-28.68,67.82-69.75,128.72-122.05,181.02
		s-113.21,93.37-181.02,122.05C839.46,1236.44,764.88,1251.5,688,1251.5z"/>
	<path d="M688,113c76.82,0,151.33,15.04,221.48,44.71c33.72,14.26,66.23,31.91,96.65,52.46c30.13,20.36,58.46,43.73,84.21,69.48
		c25.75,25.75,49.13,54.08,69.48,84.21c20.55,30.42,38.2,62.94,52.46,96.65C1241.96,530.67,1257,605.18,1257,682
		s-15.04,151.33-44.71,221.48c-14.26,33.72-31.91,66.23-52.46,96.65c-20.36,30.13-43.73,58.46-69.48,84.21s-54.08,49.13-84.21,69.48
		c-30.42,20.55-62.94,38.2-96.65,52.46C839.33,1235.96,764.82,1251,688,1251s-151.33-15.04-221.48-44.71
		c-33.72-14.26-66.23-31.91-96.65-52.46c-30.13-20.36-58.46-43.73-84.21-69.48c-25.75-25.75-49.13-54.08-69.48-84.21
		c-20.55-30.42-38.2-62.94-52.46-96.65C134.04,833.33,119,758.82,119,682s15.04-151.33,44.71-221.48
		c14.26-33.72,31.91-66.23,52.46-96.65c20.36-30.13,43.73-58.46,69.48-84.21c25.75-25.75,54.08-49.13,84.21-69.48
		c30.42-20.55,62.94-38.2,96.65-52.46C536.67,128.04,611.18,113,688,113 M688,112c-314.8,0-570,255.2-570,570s255.2,570,570,570
		s570-255.2,570-570S1002.8,112,688,112L688,112z"/>
</g>
<text transform="matrix(1 0 0 1 452.9307 1019.0059)" class="st0 st1 st2">T</text>
</svg>
