<svg xmlns="http://www.w3.org/2000/svg" viewBox="0 0 301 301"><defs><style>.cls-1{fill:#1a1a1a;}.cls-2{fill:#666;}.cls-3{fill:#fff;}.cls-4{fill:none;stroke:#000;stroke-miterlimit:10;}</style></defs><title>todo</title><g id="Layer_1" data-name="Layer 1"><path class="cls-1" d="M26.45,156.29h4.37c4.72,0,7.77,2.34,7.78,7.65s-3,7.81-7.56,7.82H26.47Zm4.18,12.64c2.62,0,4.39-1.29,4.38-5s-1.78-4.85-4.4-4.84H30v9.83Z" transform="translate(0.5 0.5)"/><path class="cls-1" d="M40.79,163.93c0-5.05,2.84-8,7-8s7,2.91,7,7.94S52,172,47.83,172,40.8,169,40.79,163.93Zm10.47,0c0-3.1-1.34-4.92-3.45-4.92s-3.44,1.83-3.43,4.94,1.34,5.06,3.45,5S51.26,167,51.26,163.91Z" transform="translate(0.5 0.5)"/><path class="cls-1" d="M57.74,156.24h3.58l4.05,7.69,1.54,3.39H67c-.17-1.63-.45-3.8-.45-5.62v-5.47h3.33l0,15.46H66.31L62.26,164l-1.53-3.38h-.1c.17,1.71.46,3.78.46,5.6v5.49H57.77Z" transform="translate(0.5 0.5)"/><path class="cls-1" d="M73.38,161.8a3.2,3.2,0,0,0,2.14-3l-.1-2,1.15,1.58a2.05,2.05,0,0,1-1.28.51,1.71,1.71,0,0,1-1.82-1.73,1.8,1.8,0,0,1,1.82-2c1.46,0,2.23,1.14,2.23,3.1a5.38,5.38,0,0,1-3.36,5.08Z" transform="translate(0.5 0.5)"/><path class="cls-1" d="M83.67,159.13H79.41V156.2l12,0v2.94H87.16l0,12.54H83.69Z" transform="translate(0.5 0.5)"/><path class="cls-1" d="M103.32,156.16h5.31c3.4,0,6.15,1.2,6.16,5s-2.77,5.25-6.05,5.25h-1.91v5.24h-3.5Zm5.21,7.44c1.92,0,2.83-.86,2.83-2.47s-1-2.2-2.93-2.2h-1.61v4.66Z" transform="translate(0.5 0.5)"/><path class="cls-1" d="M117.46,156.14H123c3.28,0,6,1.13,6,4.81s-2.68,5.09-6,5.09H121v5.56h-3.5Zm5.29,7.12c1.84,0,2.83-.79,2.83-2.31s-1-2-2.83-2H121v4.35Zm-.35,1.85,2.42-2.24,5,8.72h-3.92Z" transform="translate(0.5 0.5)"/><path class="cls-1" d="M131.28,163.79c0-5.06,2.84-8,7-8s7,2.9,7,7.93-2.84,8.09-7,8.1S131.29,168.84,131.28,163.79Zm10.47,0c0-3.1-1.34-4.93-3.45-4.93s-3.44,1.84-3.43,4.94,1.33,5.06,3.44,5.06S141.75,166.87,141.75,163.77Z" transform="translate(0.5 0.5)"/><path class="cls-1" d="M147.51,163.92c0-5.13,3.38-8.12,7.29-8.12a6.46,6.46,0,0,1,4.65,2L157.61,160a3.87,3.87,0,0,0-2.73-1.22c-2.12,0-3.79,1.87-3.79,5s1.49,5,3.75,5a4.06,4.06,0,0,0,3-1.45l1.85,2.2a6.37,6.37,0,0,1-5,2.27C150.8,171.84,147.52,169.13,147.51,163.92Z" transform="translate(0.5 0.5)"/><path class="cls-1" d="M162,156.07h5.57c3.28,0,6,1.13,6,4.81s-2.68,5.09-6,5.09h-2.07v5.57h-3.5Zm5.29,7.12c1.84,0,2.83-.79,2.83-2.32s-1-2-2.83-2h-1.79v4.35ZM167,165l2.42-2.24,4.95,8.72h-3.92Z" transform="translate(0.5 0.5)"/><path class="cls-1" d="M179.27,156h4.18l4.88,15.45h-3.7l-2-7.83c-.43-1.54-.85-3.37-1.27-5h-.09c-.37,1.64-.78,3.45-1.21,5l-2,7.83h-3.57Zm-1.64,9.07h7.44v2.72h-7.44Z" transform="translate(0.5 0.5)"/><path class="cls-1" d="M189,169.54l2-2.4a6.14,6.14,0,0,0,3.8,1.61c1.46,0,2.18-.58,2.18-1.5s-.89-1.28-2.24-1.83l-2-.86a4.52,4.52,0,0,1-3.13-4.21c0-2.56,2.29-4.61,5.5-4.62a7.17,7.17,0,0,1,5,2L198.33,160a5,5,0,0,0-3.21-1.21c-1.21,0-2,.51-2,1.39s1,1.29,2.36,1.83l2,.79a4.27,4.27,0,0,1,3.07,4.21c0,2.56-2.14,4.79-5.82,4.8A8.54,8.54,0,0,1,189,169.54Z" transform="translate(0.5 0.5)"/><path class="cls-1" d="M205.73,158.93h-4.25V156l12,0v2.93h-4.26l0,12.53h-3.5Z" transform="translate(0.5 0.5)"/><path class="cls-1" d="M215.89,156h3.5l0,15.46h-3.5Z" transform="translate(0.5 0.5)"/><path class="cls-1" d="M223,156h3.58l4,7.68,1.53,3.4h.1c-.17-1.64-.46-3.8-.46-5.63V156h3.33l0,15.47H231.6l-4-7.7L226,160.34h-.09c.16,1.71.45,3.78.45,5.61v5.48h-3.33Z" transform="translate(0.5 0.5)"/><path class="cls-1" d="M241.69,155.94h4.18l4.89,15.45h-3.7l-2-7.83c-.43-1.54-.85-3.37-1.26-5h-.1c-.37,1.64-.78,3.45-1.21,5l-2,7.83h-3.57ZM240.05,165h7.44v2.72h-7.44Z" transform="translate(0.5 0.5)"/><path class="cls-1" d="M253.71,158.86h-4.26v-2.93l12,0v2.93H257.2l0,12.53h-3.49Z" transform="translate(0.5 0.5)"/><path class="cls-1" d="M263.87,155.91l9.69,0v2.94h-6.19v3.11h5.27v2.93h-5.27v3.57l6.43,0v2.94h-9.93Z" transform="translate(0.5 0.5)"/><path class="cls-2" d="M26.45,178.29h4.37c4.72,0,7.77,2.34,7.78,7.66s-3,7.8-7.56,7.81H26.47Zm4.18,12.65c2.62,0,4.39-1.3,4.38-5s-1.78-4.84-4.4-4.84H30v9.84Z" transform="translate(0.5 0.5)"/><path class="cls-2" d="M40.79,185.94c0-5.06,2.84-8,7-8s7,2.91,7,7.94S52,194,47.83,194,40.8,191,40.79,185.94Zm10.47,0c0-3.1-1.34-4.93-3.45-4.93s-3.44,1.84-3.43,4.94S45.72,191,47.83,191,51.26,189,51.26,185.92Z" transform="translate(0.5 0.5)"/><path class="cls-2" d="M57.74,178.24h3.58l4.05,7.68,1.54,3.4H67c-.17-1.64-.45-3.81-.45-5.63v-5.46h3.33l0,15.47H66.31L62.26,186l-1.53-3.38h-.1c.17,1.71.46,3.78.46,5.6v5.49H57.77Z" transform="translate(0.5 0.5)"/><path class="cls-2" d="M73.38,183.8a3.19,3.19,0,0,0,2.14-3l-.1-2.05,1.15,1.59a2.11,2.11,0,0,1-1.28.51,1.72,1.72,0,0,1-1.82-1.74,1.79,1.79,0,0,1,1.82-1.94c1.46,0,2.23,1.13,2.23,3.09a5.37,5.37,0,0,1-3.36,5.08Z" transform="translate(0.5 0.5)"/><path class="cls-2" d="M83.67,181.13H79.41v-2.93l12,0v2.93H87.16l0,12.53H83.69Z" transform="translate(0.5 0.5)"/><path class="cls-2" d="M103.32,178.17h5.31c3.4,0,6.15,1.21,6.15,5s-2.76,5.24-6,5.25h-1.91v5.25h-3.5Zm5.21,7.43c1.92,0,2.83-.86,2.83-2.47s-1-2.2-2.93-2.19h-1.61v4.67Z" transform="translate(0.5 0.5)"/><path class="cls-2" d="M117.46,178.15H123c3.28,0,6,1.13,6,4.8s-2.68,5.09-6,5.1H121v5.57h-3.5Zm5.29,7.11c1.84,0,2.83-.79,2.83-2.31s-1-2-2.83-2H121v4.34Zm-.35,1.86,2.42-2.24,5,8.71h-3.92Z" transform="translate(0.5 0.5)"/><path class="cls-2" d="M131.28,185.79c0-5,2.84-7.95,7-8s7,2.91,7,7.94-2.84,8.09-7,8.09S131.29,190.84,131.28,185.79Zm10.47,0c0-3.1-1.34-4.93-3.45-4.92s-3.44,1.83-3.44,4.93,1.34,5.07,3.45,5.06S141.75,188.87,141.75,185.77Z" transform="translate(0.5 0.5)"/><path class="cls-2" d="M147.51,185.92c0-5.13,3.38-8.11,7.29-8.12a6.54,6.54,0,0,1,4.65,2l-1.84,2.25a3.9,3.9,0,0,0-2.73-1.23c-2.12,0-3.79,1.88-3.79,5s1.49,5,3.75,5a4.06,4.06,0,0,0,3-1.45l1.85,2.19a6.41,6.41,0,0,1-5,2.28C150.8,193.84,147.52,191.13,147.51,185.92Z" transform="translate(0.5 0.5)"/><path class="cls-2" d="M162,178.08h5.57c3.28,0,6,1.13,6,4.8s-2.68,5.09-6,5.1h-2.07v5.56h-3.5Zm5.29,7.11c1.84,0,2.83-.79,2.83-2.31s-1-2-2.83-2h-1.79v4.34Zm-.35,1.86,2.42-2.25,4.94,8.72h-3.91Z" transform="translate(0.5 0.5)"/><path class="cls-2" d="M179.27,178.05h4.18l4.88,15.46h-3.7l-2-7.83c-.43-1.54-.85-3.37-1.27-5h-.09c-.37,1.63-.78,3.44-1.21,5l-2,7.83h-3.57Zm-1.64,9.06h7.44v2.72h-7.44Z" transform="translate(0.5 0.5)"/><path class="cls-2" d="M189,191.55l2-2.41a6.09,6.09,0,0,0,3.8,1.61c1.46,0,2.18-.57,2.17-1.49s-.88-1.29-2.23-1.84l-2-.85a4.53,4.53,0,0,1-3.13-4.21c0-2.57,2.28-4.62,5.5-4.62a7.13,7.13,0,0,1,5,2l-1.76,2.2a5,5,0,0,0-3.21-1.2c-1.21,0-2,.5-2,1.39s1,1.29,2.36,1.82l2,.8a4.27,4.27,0,0,1,3.08,4.2c0,2.57-2.14,4.8-5.82,4.8A8.48,8.48,0,0,1,189,191.55Z" transform="translate(0.5 0.5)"/><path class="cls-2" d="M205.73,180.94h-4.25V178l12,0v2.94h-4.25l0,12.53h-3.5Z" transform="translate(0.5 0.5)"/><path class="cls-2" d="M215.89,178h3.5l0,15.47h-3.49Z" transform="translate(0.5 0.5)"/><path class="cls-2" d="M223,178h3.59l4,7.69,1.53,3.39h.1c-.17-1.63-.46-3.8-.46-5.62V178h3.33l0,15.46H231.6l-4-7.71L226,182.35h-.09c.16,1.7.45,3.78.45,5.6v5.49h-3.33Z" transform="translate(0.5 0.5)"/><path class="cls-2" d="M241.69,178h4.18l4.89,15.46h-3.71l-2-7.82c-.43-1.55-.85-3.38-1.26-5h-.1c-.37,1.63-.78,3.44-1.21,5l-2,7.83h-3.57ZM240.05,187h7.44v2.72h-7.45Z" transform="translate(0.5 0.5)"/><path class="cls-2" d="M253.71,180.86h-4.26v-2.93l12,0v2.93H257.2l0,12.53h-3.49Z" transform="translate(0.5 0.5)"/><path class="cls-2" d="M263.87,177.91h9.69v2.93h-6.19V184h5.27v2.93h-5.27v3.56h6.43v2.93l-9.93,0Z" transform="translate(0.5 0.5)"/><path class="cls-1" d="M26.45,112.85h4.37c4.72,0,7.77,2.34,7.78,7.65s-3,7.8-7.56,7.81H26.47Zm4.18,12.65c2.62,0,4.39-1.3,4.38-5s-1.78-4.85-4.4-4.85H30v9.84Z" transform="translate(0.5 0.5)"/><path class="cls-1" d="M40.79,120.5c0-5,2.84-8,7-8s7,2.9,7,7.94-2.84,8.08-7,8.09S40.8,125.55,40.79,120.5Zm10.47,0c0-3.1-1.34-4.93-3.45-4.92s-3.44,1.83-3.43,4.93,1.34,5.06,3.45,5.06S51.26,123.58,51.26,120.48Z" transform="translate(0.5 0.5)"/><path class="cls-1" d="M57.74,112.8h3.58l4.05,7.68,1.54,3.4H67c-.17-1.64-.45-3.8-.45-5.63v-5.46h3.33l0,15.47H66.31l-4.05-7.71-1.53-3.37h-.1c.17,1.7.46,3.77.46,5.6v5.48H57.77Z" transform="translate(0.5 0.5)"/><path class="cls-1" d="M73.38,118.36a3.19,3.19,0,0,0,2.14-3l-.1-2,1.15,1.59a2.11,2.11,0,0,1-1.28.51,1.72,1.72,0,0,1-1.82-1.74,1.78,1.78,0,0,1,1.82-1.94c1.46,0,2.23,1.14,2.23,3.09a5.37,5.37,0,0,1-3.37,5.08Z" transform="translate(0.5 0.5)"/><path class="cls-1" d="M83.67,115.7H79.41v-2.93l12,0v2.93H87.16l0,12.53H83.69Z" transform="translate(0.5 0.5)"/><path class="cls-1" d="M103.32,112.73h5.31c3.4,0,6.15,1.21,6.15,5s-2.76,5.25-6,5.25h-1.91v5.25h-3.5Zm5.21,7.44c1.92,0,2.83-.87,2.83-2.48s-1-2.19-2.93-2.19h-1.61v4.67Z" transform="translate(0.5 0.5)"/><path class="cls-1" d="M117.46,112.71H123c3.28,0,6,1.13,6,4.81s-2.68,5.08-6,5.09H121v5.57h-3.5Zm5.29,7.12c1.84,0,2.83-.8,2.83-2.32s-1-2-2.83-2H121v4.35Zm-.35,1.85,2.42-2.24,5,8.71h-3.92Z" transform="translate(0.5 0.5)"/><path class="cls-1" d="M131.28,120.35c0-5,2.84-7.95,7-8s7,2.91,7,7.94-2.84,8.09-7,8.1S131.29,125.41,131.28,120.35Zm10.47,0c0-3.11-1.34-4.93-3.45-4.93s-3.44,1.84-3.44,4.94,1.34,5.06,3.45,5.06S141.75,123.44,141.75,120.34Z" transform="translate(0.5 0.5)"/><path class="cls-1" d="M147.51,120.48c0-5.13,3.38-8.11,7.29-8.11a6.49,6.49,0,0,1,4.65,2l-1.84,2.25a3.9,3.9,0,0,0-2.73-1.23c-2.12,0-3.79,1.88-3.79,5s1.49,5,3.75,5a4.06,4.06,0,0,0,3-1.45l1.85,2.19a6.34,6.34,0,0,1-5,2.28C150.8,128.41,147.52,125.69,147.51,120.48Z" transform="translate(0.5 0.5)"/><path class="cls-1" d="M162,112.64h5.57c3.28,0,6,1.13,6,4.81s-2.68,5.08-6,5.09h-2.07v5.57h-3.5Zm5.29,7.11c1.84,0,2.83-.79,2.83-2.31s-1-2-2.83-2h-1.79v4.35Zm-.35,1.86,2.42-2.24,4.94,8.71h-3.91Z" transform="translate(0.5 0.5)"/><path class="cls-1" d="M179.27,112.61h4.18l4.88,15.46h-3.7l-2-7.83c-.43-1.55-.85-3.38-1.27-5h-.09c-.37,1.63-.78,3.45-1.21,5l-2,7.84h-3.57Zm-1.64,9.07,7.44,0v2.72h-7.44Z" transform="translate(0.5 0.5)"/><path class="cls-1" d="M189,126.11l2-2.4a6.2,6.2,0,0,0,3.8,1.61c1.46,0,2.18-.58,2.17-1.5s-.88-1.29-2.23-1.84l-2-.85a4.53,4.53,0,0,1-3.13-4.21c0-2.56,2.28-4.61,5.5-4.62a7.17,7.17,0,0,1,5,2l-1.76,2.21a5,5,0,0,0-3.21-1.21c-1.21,0-2,.5-2,1.39s1,1.29,2.36,1.82l2,.8a4.28,4.28,0,0,1,3.08,4.2c0,2.57-2.14,4.8-5.82,4.81A8.54,8.54,0,0,1,189,126.11Z" transform="translate(0.5 0.5)"/><path class="cls-1" d="M205.73,115.5h-4.25v-2.94h12v2.93h-4.25l0,12.54h-3.5Z" transform="translate(0.5 0.5)"/><path class="cls-1" d="M215.89,112.55h3.5l0,15.46h-3.49Z" transform="translate(0.5 0.5)"/><path class="cls-1" d="M223,112.54h3.59l4,7.69,1.53,3.39h.1c-.17-1.63-.46-3.8-.46-5.62v-5.46h3.33l0,15.47H231.6l-4-7.7L226,116.91h-.09c.16,1.71.45,3.78.45,5.6V128h-3.33Z" transform="translate(0.5 0.5)"/><path class="cls-1" d="M241.69,112.51h4.18L250.76,128h-3.71l-2-7.83c-.43-1.55-.85-3.38-1.26-5h-.1c-.37,1.63-.78,3.45-1.21,5l-2,7.84h-3.57Zm-1.64,9.07,7.44,0v2.72h-7.45Z" transform="translate(0.5 0.5)"/><path class="cls-1" d="M253.71,115.42h-4.26V112.5l12,0v2.93H257.2l0,12.53h-3.49Z" transform="translate(0.5 0.5)"/><path class="cls-1" d="M263.87,112.47h9.69v2.93h-6.19v3.11h5.27v2.93h-5.27V125h6.43v2.93l-9.93,0Z" transform="translate(0.5 0.5)"/><path class="cls-1" d="M26.45,134.86h4.37c4.72,0,7.77,2.34,7.78,7.65s-3,7.81-7.56,7.82H26.47Zm4.18,12.64c2.62,0,4.39-1.29,4.38-5s-1.78-4.85-4.4-4.84H30v9.83Z" transform="translate(0.5 0.5)"/><path class="cls-1" d="M40.79,142.5c0-5.05,2.84-7.95,7-8s7,2.91,7,7.94-2.84,8.09-7,8.09S40.8,147.55,40.79,142.5Zm10.47,0c0-3.11-1.34-4.93-3.45-4.93s-3.44,1.83-3.43,4.94,1.34,5.06,3.45,5.05S51.26,145.59,51.26,142.49Z" transform="translate(0.5 0.5)"/><path class="cls-1" d="M57.74,134.81h3.58l4.05,7.69,1.54,3.39H67c-.17-1.63-.45-3.8-.45-5.62v-5.47h3.33l0,15.46H66.31l-4.05-7.7-1.53-3.38h-.1c.17,1.71.46,3.78.46,5.6v5.49H57.77Z" transform="translate(0.5 0.5)"/><path class="cls-1" d="M73.38,140.37a3.2,3.2,0,0,0,2.14-3l-.1-2,1.15,1.58a2.05,2.05,0,0,1-1.28.51,1.71,1.71,0,0,1-1.82-1.73,1.79,1.79,0,0,1,1.82-1.95c1.46,0,2.23,1.14,2.23,3.1a5.38,5.38,0,0,1-3.37,5.08Z" transform="translate(0.5 0.5)"/><path class="cls-1" d="M83.67,137.7H79.41v-2.94l12,0v2.94H87.16l0,12.54H83.69Z" transform="translate(0.5 0.5)"/><path class="cls-1" d="M103.32,134.74h5.31c3.4,0,6.15,1.2,6.15,5s-2.76,5.25-6,5.25h-1.91v5.25h-3.5Zm5.21,7.43c1.92,0,2.83-.86,2.83-2.47s-1-2.2-2.93-2.2h-1.61v4.66Z" transform="translate(0.5 0.5)"/><path class="cls-1" d="M117.46,134.71H123c3.28,0,6,1.13,6,4.81s-2.68,5.09-6,5.09H121v5.56h-3.5Zm5.29,7.12c1.84,0,2.83-.79,2.83-2.31s-1-2-2.83-2H121v4.35Zm-.35,1.85,2.42-2.24,5,8.72h-3.92Z" transform="translate(0.5 0.5)"/><path class="cls-1" d="M131.28,142.36c0-5.06,2.84-8,7-8s7,2.9,7,7.93-2.84,8.09-7,8.1S131.29,147.41,131.28,142.36Zm10.47,0c0-3.1-1.34-4.93-3.45-4.93s-3.44,1.84-3.44,4.94,1.34,5.06,3.45,5.06S141.75,145.44,141.75,142.34Z" transform="translate(0.5 0.5)"/><path class="cls-1" d="M147.51,142.49c0-5.13,3.38-8.11,7.29-8.12a6.5,6.5,0,0,1,4.65,2l-1.84,2.24a3.89,3.89,0,0,0-2.73-1.22c-2.12,0-3.79,1.87-3.79,5s1.49,5,3.75,5a4.06,4.06,0,0,0,3-1.45l1.85,2.2a6.37,6.37,0,0,1-5,2.27C150.8,150.41,147.52,147.7,147.51,142.49Z" transform="translate(0.5 0.5)"/><path class="cls-1" d="M162,134.64h5.57c3.28,0,6,1.13,6,4.81s-2.68,5.09-6,5.09h-2.07v5.57h-3.5Zm5.29,7.12c1.84,0,2.83-.79,2.83-2.31s-1-2-2.83-2h-1.79v4.35Zm-.35,1.85,2.42-2.24,4.94,8.72h-3.91Z" transform="translate(0.5 0.5)"/><path class="cls-1" d="M179.27,134.61h4.18l4.88,15.45h-3.7l-2-7.83c-.43-1.54-.85-3.37-1.27-5h-.09c-.37,1.63-.78,3.44-1.21,5l-2,7.83h-3.57Zm-1.64,9.07h7.44v2.72h-7.44Z" transform="translate(0.5 0.5)"/><path class="cls-1" d="M189,148.11l2-2.4a6.14,6.14,0,0,0,3.8,1.61c1.46,0,2.18-.58,2.17-1.5s-.88-1.28-2.23-1.83l-2-.86a4.52,4.52,0,0,1-3.13-4.21c0-2.56,2.28-4.61,5.5-4.62a7.17,7.17,0,0,1,5,2l-1.76,2.21a5,5,0,0,0-3.21-1.21c-1.21,0-2,.51-2,1.39s1,1.29,2.36,1.83l2,.79a4.28,4.28,0,0,1,3.08,4.21c0,2.56-2.14,4.79-5.82,4.8A8.54,8.54,0,0,1,189,148.11Z" transform="translate(0.5 0.5)"/><path class="cls-1" d="M205.73,137.5h-4.25v-2.93l12,0v2.93h-4.25l0,12.53h-3.5Z" transform="translate(0.5 0.5)"/><path class="cls-1" d="M215.89,134.56h3.5l0,15.46h-3.49Z" transform="translate(0.5 0.5)"/><path class="cls-1" d="M223,134.54h3.59l4,7.68,1.53,3.4h.1c-.17-1.64-.46-3.8-.46-5.63v-5.46h3.33l0,15.47H231.6l-4-7.7L226,138.91h-.09c.16,1.71.45,3.78.45,5.61V150h-3.33Z" transform="translate(0.5 0.5)"/><path class="cls-1" d="M241.69,134.51h4.18L250.76,150h-3.71l-2-7.83c-.43-1.54-.85-3.37-1.26-5h-.1c-.37,1.63-.78,3.44-1.21,5l-2,7.83h-3.57Zm-1.64,9.07h7.44v2.72h-7.45Z" transform="translate(0.5 0.5)"/><path class="cls-1" d="M253.71,137.43h-4.26V134.5l12,0v2.94H257.2l0,12.53h-3.49Z" transform="translate(0.5 0.5)"/><path class="cls-1" d="M263.87,134.48l9.69,0v2.94h-6.19v3.1h5.27v2.93h-5.27V147l6.43,0v2.94h-9.93Z" transform="translate(0.5 0.5)"/><path class="cls-2" d="M26.45,241.27h4.37c4.72,0,7.77,2.34,7.78,7.65s-3,7.81-7.56,7.81H26.47Zm4.18,12.64c2.62,0,4.39-1.29,4.38-5s-1.78-4.85-4.4-4.84H30v9.83Z" transform="translate(0.5 0.5)"/><path class="cls-2" d="M40.79,248.91c0-5,2.84-8,7-8s7,2.9,7,7.94S52,257,47.83,257,40.8,254,40.79,248.91Zm10.47,0c0-3.1-1.34-4.93-3.45-4.92s-3.44,1.83-3.43,4.93S45.72,254,47.83,254,51.26,252,51.26,248.89Z" transform="translate(0.5 0.5)"/><path class="cls-2" d="M57.74,241.22h3.58l4.05,7.69,1.54,3.39H67c-.17-1.63-.45-3.8-.45-5.62V241.2h3.33l0,15.46H66.31L62.26,249l-1.53-3.37h-.1c.17,1.7.46,3.78.46,5.6v5.49H57.77Z" transform="translate(0.5 0.5)"/><path class="cls-2" d="M73.38,246.78a3.2,3.2,0,0,0,2.14-3l-.1-2,1.15,1.58a2.05,2.05,0,0,1-1.28.51,1.71,1.71,0,0,1-1.82-1.73,1.79,1.79,0,0,1,1.82-1.95c1.46,0,2.23,1.14,2.23,3.1a5.39,5.39,0,0,1-3.37,5.08Z" transform="translate(0.5 0.5)"/><path class="cls-2" d="M83.67,244.11H79.41v-2.94l12,0v2.94H87.16l0,12.53H83.69Z" transform="translate(0.5 0.5)"/><path class="cls-2" d="M103.32,241.14h5.31c3.4,0,6.15,1.2,6.15,5s-2.76,5.25-6,5.25h-1.91v5.24h-3.5Zm5.21,7.44c1.92,0,2.83-.86,2.83-2.47s-1-2.2-2.93-2.2h-1.61v4.67Z" transform="translate(0.5 0.5)"/><path class="cls-2" d="M117.46,241.12H123c3.28,0,6,1.13,6,4.81s-2.68,5.09-6,5.09H121v5.57h-3.5Zm5.29,7.12c1.84,0,2.83-.79,2.83-2.32s-1-2-2.83-2H121v4.35Zm-.35,1.85,2.42-2.24,5,8.72h-3.92Z" transform="translate(0.5 0.5)"/><path class="cls-2" d="M131.28,248.77c0-5.06,2.84-8,7-8s7,2.91,7,7.94-2.84,8.09-7,8.1S131.29,253.82,131.28,248.77Zm10.47,0c0-3.1-1.34-4.93-3.45-4.93s-3.44,1.84-3.44,4.94,1.34,5.06,3.45,5.06S141.75,251.85,141.75,248.75Z" transform="translate(0.5 0.5)"/><path class="cls-2" d="M147.51,248.9c0-5.14,3.38-8.12,7.29-8.12a6.46,6.46,0,0,1,4.65,2L157.61,245a3.85,3.85,0,0,0-2.73-1.22c-2.12,0-3.79,1.87-3.79,5s1.49,5,3.75,5a4.06,4.06,0,0,0,3-1.45l1.85,2.19a6.34,6.34,0,0,1-5,2.28C150.8,256.82,147.52,254.1,147.51,248.9Z" transform="translate(0.5 0.5)"/><path class="cls-2" d="M162,241.05h5.57c3.28,0,6,1.13,6,4.81s-2.68,5.09-6,5.09h-2.07v5.57h-3.5Zm5.29,7.11c1.84,0,2.83-.79,2.83-2.31s-1-2-2.83-2h-1.79v4.35ZM167,250l2.42-2.24,4.94,8.71h-3.91Z" transform="translate(0.5 0.5)"/><path class="cls-2" d="M179.27,241h4.18l4.88,15.45h-3.7l-2-7.83c-.43-1.55-.85-3.37-1.27-5h-.09c-.37,1.64-.78,3.45-1.21,5l-2,7.84h-3.57Zm-1.64,9.07h7.44v2.71l-7.44,0Z" transform="translate(0.5 0.5)"/><path class="cls-2" d="M189,254.52l2-2.4a6.2,6.2,0,0,0,3.8,1.61c1.46,0,2.18-.58,2.17-1.5s-.88-1.28-2.23-1.84l-2-.85a4.52,4.52,0,0,1-3.13-4.21c0-2.56,2.28-4.61,5.5-4.62a7.17,7.17,0,0,1,5,2l-1.76,2.21a5,5,0,0,0-3.21-1.21c-1.21,0-2,.51-2,1.39s1,1.29,2.36,1.83l2,.79a4.28,4.28,0,0,1,3.08,4.2c0,2.57-2.14,4.8-5.82,4.81A8.54,8.54,0,0,1,189,254.52Z" transform="translate(0.5 0.5)"/><path class="cls-2" d="M205.73,243.91h-4.25V241l12,0v2.93h-4.25l0,12.53h-3.5Z" transform="translate(0.5 0.5)"/><path class="cls-2" d="M215.89,241h3.5l0,15.46h-3.49Z" transform="translate(0.5 0.5)"/><path class="cls-2" d="M223,241h3.59l4,7.68,1.53,3.4h.1c-.17-1.64-.46-3.81-.46-5.63v-5.46h3.33l0,15.47H231.6l-4-7.7L226,245.32h-.09c.16,1.71.45,3.78.45,5.6v5.49h-3.33Z" transform="translate(0.5 0.5)"/><path class="cls-2" d="M241.69,240.92h4.18l4.89,15.45h-3.71l-2-7.83c-.43-1.55-.85-3.37-1.26-5h-.1c-.37,1.64-.78,3.45-1.21,5l-2,7.84h-3.57ZM240.05,250h7.44v2.71l-7.45,0Z" transform="translate(0.5 0.5)"/><path class="cls-2" d="M253.71,243.84h-4.26v-2.93l12,0v2.93H257.2l0,12.53h-3.49Z" transform="translate(0.5 0.5)"/><path class="cls-2" d="M263.87,240.89l9.69,0v2.93h-6.19v3.11h5.27v2.93h-5.27v3.56h6.43v2.94h-9.93Z" transform="translate(0.5 0.5)"/><path class="cls-2" d="M26.45,197.83h4.37c4.72,0,7.77,2.33,7.78,7.65s-3,7.8-7.56,7.81H26.47Zm4.18,12.65c2.62,0,4.39-1.3,4.38-5s-1.78-4.85-4.4-4.85H30v9.84Z" transform="translate(0.5 0.5)"/><path class="cls-2" d="M40.79,205.48c0-5.06,2.84-8,7-8s7,2.9,7,7.93-2.84,8.09-7,8.1S40.8,210.53,40.79,205.48Zm10.47,0c0-3.1-1.34-4.93-3.45-4.93s-3.44,1.84-3.43,4.94,1.34,5.06,3.44,5.06S51.26,208.56,51.26,205.46Z" transform="translate(0.5 0.5)"/><path class="cls-2" d="M57.74,197.78h3.58l4.05,7.68,1.53,3.4H67c-.17-1.64-.45-3.8-.46-5.63v-5.46h3.33l0,15.47H66.31l-4.05-7.7-1.53-3.38h-.1c.17,1.71.45,3.78.46,5.6v5.49H57.76Z" transform="translate(0.5 0.5)"/><path class="cls-2" d="M73.38,203.34a3.19,3.19,0,0,0,2.14-3l-.1-2,1.15,1.59a2.11,2.11,0,0,1-1.28.51,1.72,1.72,0,0,1-1.82-1.74,1.78,1.78,0,0,1,1.82-1.94c1.46,0,2.23,1.14,2.23,3.09a5.37,5.37,0,0,1-3.37,5.08Z" transform="translate(0.5 0.5)"/><path class="cls-2" d="M83.67,200.67H79.41v-2.93l12,0v2.93H87.16l0,12.53H83.69Z" transform="translate(0.5 0.5)"/><path class="cls-2" d="M103.32,197.71h5.31c3.4,0,6.15,1.21,6.15,5s-2.76,5.24-6,5.25h-1.91v5.25h-3.5Zm5.21,7.43c1.92,0,2.83-.86,2.83-2.47s-1-2.19-2.93-2.19h-1.61v4.67Z" transform="translate(0.5 0.5)"/><path class="cls-2" d="M117.46,197.69H123c3.28,0,6,1.13,6,4.81s-2.68,5.08-6,5.09H121v5.57h-3.5Zm5.29,7.11c1.84,0,2.83-.79,2.83-2.31s-1-2-2.83-2H121v4.35Zm-.35,1.86,2.42-2.24,5,8.71h-3.92Z" transform="translate(0.5 0.5)"/><path class="cls-2" d="M131.28,205.33c0-5.05,2.84-8,7-8s7,2.91,7,7.94-2.84,8.09-7,8.09S131.29,210.38,131.28,205.33Zm10.47,0c0-3.1-1.34-4.92-3.45-4.92s-3.44,1.83-3.44,4.94,1.34,5.06,3.45,5S141.75,208.41,141.75,205.31Z" transform="translate(0.5 0.5)"/><path class="cls-2" d="M147.51,205.46c0-5.13,3.38-8.11,7.29-8.12a6.54,6.54,0,0,1,4.65,2l-1.84,2.25a3.9,3.9,0,0,0-2.73-1.23c-2.12,0-3.79,1.88-3.79,5s1.49,5,3.75,5a4.06,4.06,0,0,0,3-1.45l1.85,2.19a6.37,6.37,0,0,1-5,2.28C150.8,213.38,147.52,210.67,147.51,205.46Z" transform="translate(0.5 0.5)"/><path class="cls-2" d="M162,197.62h5.57c3.28,0,6,1.13,6,4.8s-2.68,5.09-6,5.1h-2.07v5.57h-3.5Zm5.29,7.11c1.84,0,2.83-.79,2.83-2.31s-1-2-2.83-2h-1.79v4.34Zm-.35,1.86,2.42-2.24,4.94,8.71h-3.91Z" transform="translate(0.5 0.5)"/><path class="cls-2" d="M179.27,197.59h4.18L188.33,213h-3.7l-2-7.82c-.43-1.55-.85-3.38-1.27-5h-.09c-.37,1.63-.78,3.44-1.21,5l-2,7.84h-3.57Zm-1.64,9.07,7.44,0v2.72h-7.44Z" transform="translate(0.5 0.5)"/><path class="cls-2" d="M189,211.09l2-2.4a6.13,6.13,0,0,0,3.8,1.6c1.46,0,2.18-.57,2.17-1.49s-.88-1.29-2.23-1.84l-2-.85a4.53,4.53,0,0,1-3.13-4.21c0-2.57,2.28-4.62,5.5-4.62a7.17,7.17,0,0,1,5,2l-1.76,2.2a5,5,0,0,0-3.21-1.2c-1.21,0-2,.5-2,1.39s1,1.29,2.36,1.82l2,.8a4.28,4.28,0,0,1,3.08,4.2c0,2.57-2.14,4.8-5.82,4.8A8.48,8.48,0,0,1,189,211.09Z" transform="translate(0.5 0.5)"/><path class="cls-2" d="M205.73,200.48h-4.25v-2.94l12,0v2.94h-4.25l0,12.54h-3.5Z" transform="translate(0.5 0.5)"/><path class="cls-2" d="M215.89,197.53h3.5l0,15.47h-3.49Z" transform="translate(0.5 0.5)"/><path class="cls-2" d="M223,197.52h3.59l4,7.69,1.53,3.39h.1c-.17-1.63-.46-3.8-.46-5.62V197.5h3.33l0,15.46H231.6l-4-7.7L226,201.89h-.09c.16,1.71.45,3.78.45,5.6V213h-3.33Z" transform="translate(0.5 0.5)"/><path class="cls-2" d="M241.69,197.49h4.18l4.89,15.46h-3.71l-2-7.83c-.43-1.55-.85-3.38-1.26-5h-.1c-.37,1.63-.78,3.44-1.21,5l-2,7.84h-3.57Zm-1.64,9.06h7.44v2.72h-7.45Z" transform="translate(0.5 0.5)"/><path class="cls-2" d="M253.71,200.4h-4.26v-2.93l12,0v2.93H257.2l0,12.53h-3.49Z" transform="translate(0.5 0.5)"/><path class="cls-2" d="M263.87,197.45h9.69v2.93h-6.19v3.11h5.27v2.93h-5.27V210h6.43v2.93l-9.93,0Z" transform="translate(0.5 0.5)"/><path class="cls-2" d="M26.45,219.84h4.37c4.72,0,7.77,2.34,7.78,7.65s-3,7.81-7.56,7.81H26.47Zm4.18,12.64c2.62,0,4.39-1.29,4.38-5s-1.78-4.85-4.4-4.84H30v9.83Z" transform="translate(0.5 0.5)"/><path class="cls-2" d="M40.79,227.48c0-5,2.84-7.95,7-8s7,2.9,7,7.94-2.84,8.09-7,8.09S40.8,232.53,40.79,227.48Zm10.47,0c0-3.1-1.34-4.93-3.45-4.92s-3.44,1.83-3.43,4.93,1.34,5.07,3.44,5.06S51.26,230.56,51.26,227.46Z" transform="translate(0.5 0.5)"/><path class="cls-2" d="M57.74,219.79h3.58l4.05,7.69,1.53,3.39H67c-.17-1.63-.45-3.8-.46-5.62v-5.47h3.33l0,15.46H66.31l-4.05-7.71-1.53-3.37h-.1c.17,1.7.45,3.78.46,5.6v5.49H57.76Z" transform="translate(0.5 0.5)"/><path class="cls-2" d="M73.38,225.35a3.2,3.2,0,0,0,2.14-3l-.1-2,1.15,1.58a2.05,2.05,0,0,1-1.28.51,1.71,1.71,0,0,1-1.82-1.73,1.78,1.78,0,0,1,1.82-1.95c1.46,0,2.23,1.14,2.23,3.1a5.38,5.38,0,0,1-3.37,5.08Z" transform="translate(0.5 0.5)"/><path class="cls-2" d="M83.67,222.68H79.41v-2.94l12,0v2.94H87.16l0,12.53H83.69Z" transform="translate(0.5 0.5)"/><path class="cls-2" d="M103.32,219.71h5.31c3.4,0,6.15,1.2,6.15,5s-2.76,5.25-6,5.25h-1.91v5.24h-3.5Zm5.21,7.44c1.92,0,2.83-.86,2.83-2.47s-1-2.2-2.93-2.2h-1.61v4.66Z" transform="translate(0.5 0.5)"/><path class="cls-2" d="M117.46,219.69H123c3.28,0,6,1.13,6,4.81s-2.68,5.09-6,5.09H121v5.57h-3.5Zm5.29,7.12c1.84,0,2.83-.79,2.83-2.32s-1-2-2.83-2H121v4.35Zm-.35,1.85,2.42-2.24,4.94,8.72h-3.91Z" transform="translate(0.5 0.5)"/><path class="cls-2" d="M131.28,227.34c0-5.06,2.84-8,7-8s7,2.91,7,7.94-2.84,8.09-7,8.1S131.29,232.39,131.28,227.34Zm10.47,0c0-3.1-1.34-4.93-3.45-4.93s-3.44,1.84-3.44,4.94,1.34,5.06,3.45,5.06S141.75,230.42,141.75,227.32Z" transform="translate(0.5 0.5)"/><path class="cls-2" d="M147.51,227.47c0-5.14,3.38-8.12,7.29-8.12a6.46,6.46,0,0,1,4.65,2l-1.84,2.24a3.85,3.85,0,0,0-2.73-1.22c-2.12,0-3.79,1.87-3.79,5s1.49,5,3.75,5a4.06,4.06,0,0,0,3-1.45l1.85,2.19a6.34,6.34,0,0,1-5,2.28C150.8,235.39,147.52,232.67,147.51,227.47Z" transform="translate(0.5 0.5)"/><path class="cls-2" d="M162,219.62h5.57c3.27,0,6,1.13,6,4.81s-2.68,5.09-6,5.09h-2.07v5.57h-3.5Zm5.29,7.12c1.84,0,2.83-.8,2.83-2.32s-1-2-2.83-2h-1.79v4.35Zm-.35,1.85,2.41-2.24,5,8.72h-3.91Z" transform="translate(0.5 0.5)"/><path class="cls-2" d="M179.27,219.59h4.18L188.33,235h-3.7l-2-7.83c-.44-1.55-.85-3.37-1.27-5h-.09c-.37,1.64-.78,3.45-1.21,5l-2,7.84h-3.58Zm-1.64,9.07h7.44v2.71l-7.44,0Z" transform="translate(0.5 0.5)"/><path class="cls-2" d="M189,233.09l2-2.4a6.2,6.2,0,0,0,3.8,1.61c1.46,0,2.17-.58,2.17-1.5s-.88-1.28-2.23-1.84l-2-.85a4.5,4.5,0,0,1-3.13-4.21c0-2.56,2.28-4.61,5.5-4.62a7.17,7.17,0,0,1,5,2l-1.76,2.21a5,5,0,0,0-3.21-1.21c-1.21,0-2,.51-2,1.39s1,1.29,2.36,1.83l2,.79a4.28,4.28,0,0,1,3.08,4.2c0,2.57-2.14,4.8-5.82,4.81A8.54,8.54,0,0,1,189,233.09Z" transform="translate(0.5 0.5)"/><path class="cls-2" d="M205.73,222.48h-4.26v-2.93l12,0v2.93h-4.25l0,12.53h-3.5Z" transform="translate(0.5 0.5)"/><path class="cls-2" d="M215.89,219.53h3.5l0,15.46h-3.49Z" transform="translate(0.5 0.5)"/><path class="cls-2" d="M223,219.52h3.59l4,7.68,1.54,3.4h.09c-.16-1.64-.45-3.81-.45-5.63v-5.46h3.33l0,15.47H231.6l-4-7.7L226,223.89h-.09c.16,1.71.45,3.78.45,5.6V235h-3.33Z" transform="translate(0.5 0.5)"/><path class="cls-2" d="M241.69,219.49h4.18l4.88,15.45h-3.7l-2-7.83c-.43-1.54-.85-3.37-1.27-5h-.09c-.37,1.64-.78,3.45-1.21,5l-2,7.84h-3.57Zm-1.64,9.07h7.44v2.71l-7.44,0Z" transform="translate(0.5 0.5)"/><path class="cls-2" d="M253.7,222.41h-4.25v-2.93l12,0v2.93H257.2l0,12.53h-3.5Z" transform="translate(0.5 0.5)"/><path class="cls-2" d="M263.86,219.46l9.69,0v2.93h-6.19v3.11h5.27v2.93h-5.27V232h6.43v2.94h-9.93Z" transform="translate(0.5 0.5)"/><path class="cls-2" d="M26.45,71.23h4.37c4.72,0,7.77,2.34,7.78,7.66s-3,7.8-7.56,7.81H26.47Zm4.18,12.65c2.62,0,4.39-1.3,4.38-5S33.23,74,30.61,74H30v9.84Z" transform="translate(0.5 0.5)"/><path class="cls-2" d="M40.79,78.88c0-5.06,2.84-8,7-8s7,2.91,7,7.94-2.84,8.09-7,8.1S40.8,83.93,40.79,78.88Zm10.47,0c0-3.1-1.34-4.93-3.45-4.93s-3.44,1.84-3.43,4.94,1.33,5.06,3.44,5.06S51.26,82,51.26,78.86Z" transform="translate(0.5 0.5)"/><path class="cls-2" d="M57.74,71.18h3.58l4.05,7.68,1.53,3.4H67c-.17-1.64-.45-3.81-.46-5.63V71.17h3.33l0,15.47H66.31l-4.05-7.7-1.53-3.38h-.1c.17,1.71.45,3.78.46,5.6v5.49H57.76Z" transform="translate(0.5 0.5)"/><path class="cls-2" d="M73.38,76.74a3.19,3.19,0,0,0,2.14-3l-.1-2,1.15,1.59a2.17,2.17,0,0,1-1.28.51A1.72,1.72,0,0,1,73.47,72a1.77,1.77,0,0,1,1.82-1.94c1.46,0,2.23,1.13,2.23,3.09a5.37,5.37,0,0,1-3.37,5.08Z" transform="translate(0.5 0.5)"/><path class="cls-2" d="M83.67,74.07H79.41V71.15l12,0v2.93H87.16l0,12.53H83.69Z" transform="translate(0.5 0.5)"/><path class="cls-2" d="M103.32,71.11h5.31c3.4,0,6.15,1.21,6.15,5s-2.76,5.24-6,5.25h-1.91v5.25h-3.5Zm5.21,7.43c1.92,0,2.83-.86,2.83-2.47s-1-2.2-2.93-2.19h-1.61v4.67Z" transform="translate(0.5 0.5)"/><path class="cls-2" d="M117.46,71.09H123c3.28,0,6,1.13,6,4.8S126.32,81,123,81H121v5.57h-3.5Zm5.29,7.11c1.84,0,2.83-.79,2.83-2.31s-1-2-2.83-2H121V78.2Zm-.35,1.86,2.42-2.24,4.94,8.71h-3.91Z" transform="translate(0.5 0.5)"/><path class="cls-2" d="M131.28,78.73c0-5,2.84-8,7-8s7,2.9,7,7.94-2.84,8.09-7,8.09S131.29,83.78,131.28,78.73Zm10.47,0c0-3.1-1.34-4.93-3.45-4.92s-3.44,1.83-3.44,4.93,1.34,5.07,3.45,5.06S141.75,81.81,141.75,78.71Z" transform="translate(0.5 0.5)"/><path class="cls-2" d="M147.51,78.86c0-5.13,3.38-8.11,7.29-8.12a6.54,6.54,0,0,1,4.65,2L157.61,75a3.9,3.9,0,0,0-2.73-1.23c-2.12,0-3.79,1.88-3.79,5s1.49,5,3.75,5a4.06,4.06,0,0,0,3-1.45l1.85,2.19a6.41,6.41,0,0,1-5,2.28C150.8,86.78,147.52,84.07,147.51,78.86Z" transform="translate(0.5 0.5)"/><path class="cls-2" d="M162,71h5.57c3.27,0,6,1.13,6,4.8s-2.68,5.09-6,5.1h-2.07v5.56h-3.5Zm5.29,7.12c1.84,0,2.83-.79,2.83-2.31s-1-2-2.83-2h-1.79v4.34ZM167,80l2.41-2.25,5,8.72h-3.91Z" transform="translate(0.5 0.5)"/><path class="cls-2" d="M179.27,71h4.18l4.88,15.46h-3.7l-2-7.83c-.44-1.54-.85-3.37-1.27-5h-.09c-.37,1.63-.78,3.44-1.21,5l-2,7.83h-3.58Zm-1.64,9.06h7.44v2.72h-7.44Z" transform="translate(0.5 0.5)"/><path class="cls-2" d="M189,84.49l2-2.41a6.09,6.09,0,0,0,3.8,1.61c1.46,0,2.17-.57,2.17-1.49s-.88-1.29-2.23-1.84l-2-.85a4.51,4.51,0,0,1-3.13-4.21c0-2.57,2.28-4.62,5.5-4.62a7.13,7.13,0,0,1,5,2l-1.76,2.2a5,5,0,0,0-3.21-1.2c-1.21,0-2,.5-2,1.39s1,1.29,2.36,1.82l2,.8a4.27,4.27,0,0,1,3.08,4.2c0,2.57-2.14,4.8-5.82,4.8A8.48,8.48,0,0,1,189,84.49Z" transform="translate(0.5 0.5)"/><path class="cls-2" d="M205.73,73.88h-4.26V71l12,0v2.94h-4.25l0,12.53h-3.5Z" transform="translate(0.5 0.5)"/><path class="cls-2" d="M215.89,70.93h3.5l0,15.47h-3.49Z" transform="translate(0.5 0.5)"/><path class="cls-2" d="M223,70.92h3.59l4,7.69L232.2,82h.09c-.16-1.63-.45-3.8-.45-5.62V70.9h3.33l0,15.46H231.6l-4-7.71L226,75.29h-.09c.16,1.7.45,3.78.45,5.6v5.49h-3.33Z" transform="translate(0.5 0.5)"/><path class="cls-2" d="M241.69,70.89h4.18l4.88,15.46h-3.7l-2-7.83c-.43-1.54-.85-3.37-1.27-5h-.09c-.37,1.63-.78,3.44-1.21,5l-2,7.83h-3.57ZM240.05,80h7.44v2.72h-7.44Z" transform="translate(0.5 0.5)"/><path class="cls-2" d="M253.7,73.8h-4.25V70.88l12,0v2.93H257.2l0,12.53h-3.5Z" transform="translate(0.5 0.5)"/><path class="cls-2" d="M263.86,70.85h9.69v2.93h-6.19v3.11h5.27v2.93h-5.27v3.56h6.43V86.3l-9.93,0Z" transform="translate(0.5 0.5)"/><path class="cls-2" d="M26.45,93.24h4.37c4.72,0,7.77,2.34,7.78,7.65s-3,7.81-7.56,7.81H26.47Zm4.18,12.64c2.62,0,4.39-1.29,4.38-5S33.23,96,30.61,96H30v9.83Z" transform="translate(0.5 0.5)"/><path class="cls-2" d="M40.79,100.88c0-5,2.84-8,7-8s7,2.9,7,7.94-2.84,8.08-7,8.09S40.8,105.93,40.79,100.88Zm10.47,0c0-3.1-1.34-4.93-3.45-4.92s-3.44,1.83-3.43,4.93,1.33,5.07,3.44,5.06S51.26,104,51.26,100.86Z" transform="translate(0.5 0.5)"/><path class="cls-2" d="M57.74,93.19h3.58l4.05,7.69,1.53,3.39H67c-.17-1.64-.45-3.8-.46-5.62V93.17h3.33l0,15.46H66.31l-4.05-7.71-1.53-3.37h-.1c.17,1.7.45,3.77.46,5.6v5.49H57.76Z" transform="translate(0.5 0.5)"/><path class="cls-2" d="M73.38,98.74a3.18,3.18,0,0,0,2.14-3l-.1-2,1.15,1.58a2.11,2.11,0,0,1-1.28.51A1.71,1.71,0,0,1,73.47,94a1.78,1.78,0,0,1,1.82-1.94c1.46,0,2.23,1.14,2.23,3.09a5.39,5.39,0,0,1-3.37,5.09Z" transform="translate(0.5 0.5)"/><path class="cls-2" d="M83.67,96.08H79.41V93.15l12,0v2.93H87.16l0,12.53H83.69Z" transform="translate(0.5 0.5)"/><path class="cls-2" d="M103.32,93.11h5.31c3.4,0,6.15,1.21,6.15,5s-2.76,5.25-6,5.25h-1.91v5.24h-3.5Zm5.21,7.44c1.92,0,2.83-.87,2.83-2.48s-1-2.19-2.93-2.19h-1.61v4.67Z" transform="translate(0.5 0.5)"/><path class="cls-2" d="M117.46,93.09H123c3.27,0,6,1.13,6,4.81s-2.68,5.09-6,5.09H121v5.57h-3.5Zm5.29,7.12c1.84,0,2.83-.8,2.83-2.32s-1-2-2.83-2H121v4.35Zm-.35,1.85,2.41-2.24,4.95,8.72h-3.91Z" transform="translate(0.5 0.5)"/><path class="cls-2" d="M131.28,100.73c0-5,2.84-8,7-8s7,2.91,7,7.94-2.84,8.09-7,8.1S131.29,105.79,131.28,100.73Zm10.47,0c0-3.1-1.34-4.93-3.45-4.93s-3.44,1.84-3.44,4.94,1.34,5.06,3.45,5.06S141.75,103.82,141.75,100.72Z" transform="translate(0.5 0.5)"/><path class="cls-2" d="M147.51,100.86c0-5.13,3.38-8.11,7.29-8.11a6.48,6.48,0,0,1,4.65,2L157.61,97a3.9,3.9,0,0,0-2.73-1.23c-2.12,0-3.79,1.88-3.79,5s1.49,5,3.75,5a4.06,4.06,0,0,0,3-1.45l1.85,2.19a6.34,6.34,0,0,1-5,2.28C150.8,108.79,147.52,106.07,147.51,100.86Z" transform="translate(0.5 0.5)"/><path class="cls-2" d="M162,93h5.56c3.28,0,6,1.13,6,4.81s-2.68,5.08-6,5.09h-2.07v5.57h-3.5Zm5.29,7.11c1.84,0,2.83-.79,2.82-2.31s-1-2-2.83-2h-1.78v4.35ZM167,102l2.41-2.24,5,8.71h-3.91Z" transform="translate(0.5 0.5)"/><path class="cls-2" d="M179.27,93h4.18l4.88,15.46h-3.7l-2-7.83c-.44-1.55-.85-3.37-1.27-5h-.09c-.37,1.64-.78,3.45-1.21,5l-2,7.84h-3.58Zm-1.64,9.07h7.44v2.71l-7.44,0Z" transform="translate(0.5 0.5)"/><path class="cls-2" d="M189,106.49l2-2.4a6.2,6.2,0,0,0,3.8,1.61c1.46,0,2.17-.58,2.17-1.5s-.88-1.28-2.23-1.84l-2-.85a4.5,4.5,0,0,1-3.13-4.21c0-2.56,2.28-4.61,5.5-4.62a7.17,7.17,0,0,1,5,2l-1.76,2.21a5,5,0,0,0-3.21-1.21c-1.21,0-2,.51-2,1.39s1,1.29,2.36,1.83l2,.79a4.28,4.28,0,0,1,3.08,4.2c0,2.57-2.14,4.8-5.82,4.81A8.54,8.54,0,0,1,189,106.49Z" transform="translate(0.5 0.5)"/><path class="cls-2" d="M205.73,95.88h-4.26V93l12,0v2.93h-4.25l0,12.53h-3.5Z" transform="translate(0.5 0.5)"/><path class="cls-2" d="M215.89,92.93h3.5l0,15.46h-3.49Z" transform="translate(0.5 0.5)"/><path class="cls-2" d="M223,92.92h3.59l4,7.68,1.54,3.4h.09c-.16-1.64-.45-3.81-.45-5.63V92.91h3.33l0,15.47H231.6l-4-7.7L226,97.29h-.09c.16,1.71.45,3.78.45,5.6v5.49h-3.33Z" transform="translate(0.5 0.5)"/><path class="cls-2" d="M241.69,92.89h4.18l4.88,15.45h-3.7l-2-7.83c-.43-1.55-.85-3.37-1.27-5h-.09c-.37,1.64-.78,3.45-1.21,5l-2,7.84h-3.57ZM240.05,102h7.44v2.71l-7.44,0Z" transform="translate(0.5 0.5)"/><path class="cls-2" d="M253.7,95.81h-4.25V92.88l12,0v2.93H257.2l0,12.53h-3.5Z" transform="translate(0.5 0.5)"/><path class="cls-2" d="M263.86,92.86l9.69,0v2.93h-6.19v3.11h5.27v2.93h-5.27v3.56h6.43v2.94h-9.93Z" transform="translate(0.5 0.5)"/><path class="cls-2" d="M26.45,27.8h4.37c4.72,0,7.77,2.34,7.78,7.65s-3,7.81-7.56,7.82H26.47Zm4.18,12.64c2.62,0,4.39-1.29,4.38-5s-1.78-4.85-4.4-4.84H30v9.83Z" transform="translate(0.5 0.5)"/><path class="cls-2" d="M40.79,35.44c0-5,2.84-7.95,7-8s7,2.91,7,7.94-2.84,8.09-7,8.09S40.8,40.49,40.79,35.44Zm10.47,0c0-3.11-1.34-4.93-3.45-4.93s-3.44,1.83-3.44,4.94,1.34,5.06,3.45,5.05S51.26,38.53,51.26,35.43Z" transform="translate(0.5 0.5)"/><path class="cls-2" d="M57.74,27.75h3.58l4.05,7.69,1.53,3.39H67c-.17-1.63-.45-3.8-.46-5.62V27.73h3.34l0,15.46H66.31l-4.05-7.7-1.53-3.38h-.1c.17,1.71.45,3.78.46,5.6v5.49H57.76Z" transform="translate(0.5 0.5)"/><path class="cls-2" d="M73.38,33.31a3.2,3.2,0,0,0,2.14-3l-.1-2,1.15,1.58a2.05,2.05,0,0,1-1.28.51,1.71,1.71,0,0,1-1.82-1.73,1.78,1.78,0,0,1,1.81-2c1.47,0,2.24,1.14,2.24,3.1a5.39,5.39,0,0,1-3.37,5.08Z" transform="translate(0.5 0.5)"/><path class="cls-2" d="M83.66,30.64H79.41V27.71l12,0v2.94H87.16l0,12.54h-3.5Z" transform="translate(0.5 0.5)"/><path class="cls-2" d="M103.32,27.68h5.31c3.4,0,6.15,1.2,6.15,5s-2.76,5.25-6,5.25h-1.91v5.25h-3.5Zm5.21,7.43c1.92,0,2.83-.86,2.83-2.47s-1-2.2-2.93-2.2h-1.61v4.66Z" transform="translate(0.5 0.5)"/><path class="cls-2" d="M117.46,27.65H123c3.27,0,6,1.13,6,4.81s-2.68,5.09-6,5.09H121v5.56h-3.5Zm5.29,7.12c1.84,0,2.83-.79,2.83-2.31s-1-2-2.83-2H121v4.35Zm-.35,1.85,2.41-2.24,4.95,8.72h-3.91Z" transform="translate(0.5 0.5)"/><path class="cls-2" d="M131.28,35.3c0-5.06,2.84-8,7-8s7,2.9,7,7.93-2.84,8.09-7,8.1S131.29,40.35,131.28,35.3Zm10.47,0c0-3.1-1.34-4.93-3.45-4.93s-3.44,1.84-3.44,4.94,1.34,5.06,3.45,5.06S141.75,38.38,141.75,35.28Z" transform="translate(0.5 0.5)"/><path class="cls-2" d="M147.51,35.43c0-5.13,3.38-8.11,7.29-8.12a6.52,6.52,0,0,1,4.65,2l-1.84,2.24a3.89,3.89,0,0,0-2.73-1.22c-2.12,0-3.79,1.87-3.79,5s1.49,5,3.75,5a4.06,4.06,0,0,0,3-1.45l1.85,2.2a6.37,6.37,0,0,1-5,2.27C150.8,43.35,147.52,40.64,147.51,35.43Z" transform="translate(0.5 0.5)"/><path class="cls-2" d="M162,27.58h5.56c3.28,0,6,1.13,6,4.81s-2.68,5.09-6,5.09h-2.07V43h-3.5Zm5.29,7.12c1.84,0,2.83-.79,2.82-2.31s-1-2-2.83-2h-1.78V34.7ZM167,36.55l2.41-2.24,5,8.72h-3.91Z" transform="translate(0.5 0.5)"/><path class="cls-2" d="M179.27,27.55h4.18L188.33,43h-3.7l-2-7.83c-.44-1.54-.85-3.37-1.27-5h-.09c-.37,1.63-.78,3.44-1.21,5L178,43h-3.58Zm-1.64,9.07h7.44v2.72h-7.44Z" transform="translate(0.5 0.5)"/><path class="cls-2" d="M189,41.05l2-2.4a6.14,6.14,0,0,0,3.8,1.61c1.46,0,2.17-.58,2.17-1.5s-.88-1.28-2.23-1.83l-2-.86a4.5,4.5,0,0,1-3.13-4.21c0-2.56,2.28-4.61,5.5-4.62a7.17,7.17,0,0,1,5,2l-1.76,2.21a5,5,0,0,0-3.21-1.21c-1.21,0-2,.51-2,1.39s1,1.29,2.36,1.83l2,.79a4.28,4.28,0,0,1,3.08,4.21c0,2.56-2.14,4.79-5.82,4.8A8.54,8.54,0,0,1,189,41.05Z" transform="translate(0.5 0.5)"/><path class="cls-2" d="M205.73,30.44h-4.26V27.52l12,0v2.93h-4.25l0,12.53h-3.5Z" transform="translate(0.5 0.5)"/><path class="cls-2" d="M215.89,27.5h3.5l0,15.46h-3.49Z" transform="translate(0.5 0.5)"/><path class="cls-2" d="M223,27.48h3.59l4,7.68,1.54,3.4h.09c-.16-1.64-.45-3.8-.45-5.63V27.47h3.33l0,15.47H231.6l-4-7.7L226,31.85h-.09c.16,1.71.45,3.78.45,5.61v5.48h-3.33Z" transform="translate(0.5 0.5)"/><path class="cls-2" d="M241.69,27.45h4.18l4.88,15.45h-3.7l-2-7.83c-.43-1.54-.85-3.37-1.27-5h-.09c-.37,1.63-.78,3.44-1.21,5l-2,7.83h-3.57Zm-1.64,9.07h7.44v2.72h-7.44Z" transform="translate(0.5 0.5)"/><path class="cls-2" d="M253.7,30.37h-4.25V27.44l12,0v2.94H257.2l0,12.53h-3.5Z" transform="translate(0.5 0.5)"/><path class="cls-2" d="M263.86,27.42l9.69,0v2.94h-6.19v3.1h5.27v2.93h-5.27V40l6.43,0v2.94h-9.93Z" transform="translate(0.5 0.5)"/><path class="cls-2" d="M26.45,49.8h4.37c4.72,0,7.77,2.33,7.78,7.65s-3,7.8-7.56,7.81H26.47Zm4.18,12.65c2.62,0,4.39-1.3,4.38-5s-1.78-4.84-4.4-4.84H30v9.84Z" transform="translate(0.5 0.5)"/><path class="cls-2" d="M40.79,57.45c0-5.06,2.84-8,7-8s7,2.91,7,7.94-2.84,8.09-7,8.1S40.8,62.5,40.79,57.45Zm10.47,0c0-3.1-1.34-4.93-3.45-4.93s-3.44,1.84-3.44,4.94,1.34,5.06,3.45,5.06S51.26,60.53,51.26,57.43Z" transform="translate(0.5 0.5)"/><path class="cls-2" d="M57.74,49.75h3.58l4.05,7.68,1.53,3.4H67c-.17-1.64-.45-3.81-.46-5.63V49.74h3.34l0,15.47H66.31l-4.05-7.7-1.53-3.38h-.1c.17,1.71.45,3.78.46,5.6v5.49H57.76Z" transform="translate(0.5 0.5)"/><path class="cls-2" d="M73.38,55.31a3.19,3.19,0,0,0,2.14-3l-.1-2,1.15,1.59a2.17,2.17,0,0,1-1.28.51,1.72,1.72,0,0,1-1.82-1.74,1.77,1.77,0,0,1,1.81-1.94c1.47,0,2.24,1.13,2.24,3.09a5.38,5.38,0,0,1-3.37,5.08Z" transform="translate(0.5 0.5)"/><path class="cls-2" d="M83.66,52.64H79.41V49.72l12,0v2.93H87.16l0,12.53h-3.5Z" transform="translate(0.5 0.5)"/><path class="cls-2" d="M103.32,49.68h5.31c3.4,0,6.15,1.21,6.15,5s-2.76,5.24-6,5.25h-1.91v5.25h-3.5Zm5.21,7.43c1.92,0,2.83-.86,2.83-2.47s-1-2.2-2.93-2.19h-1.61v4.67Z" transform="translate(0.5 0.5)"/><path class="cls-2" d="M117.46,49.66H123c3.27,0,6,1.13,6,4.8s-2.68,5.09-6,5.1H121v5.57h-3.5Zm5.29,7.11c1.84,0,2.83-.79,2.82-2.31s-1-2-2.83-2H121v4.34Zm-.35,1.86,2.41-2.24,4.95,8.71h-3.91Z" transform="translate(0.5 0.5)"/><path class="cls-2" d="M131.28,57.3c0-5,2.84-7.95,7-8s7,2.9,7,7.94-2.84,8.09-7,8.09S131.29,62.35,131.28,57.3Zm10.46,0c0-3.1-1.33-4.93-3.44-4.92s-3.44,1.83-3.44,4.94,1.34,5.06,3.45,5.05S141.75,60.38,141.74,57.28Z" transform="translate(0.5 0.5)"/><path class="cls-2" d="M147.51,57.43c0-5.13,3.38-8.11,7.29-8.12a6.56,6.56,0,0,1,4.65,2l-1.84,2.25a3.9,3.9,0,0,0-2.73-1.23c-2.12,0-3.79,1.88-3.79,5s1.49,5,3.75,5a4.06,4.06,0,0,0,3-1.45l1.85,2.19a6.41,6.41,0,0,1-5,2.28C150.8,65.35,147.52,62.64,147.51,57.43Z" transform="translate(0.5 0.5)"/><path class="cls-2" d="M162,49.59h5.56c3.28,0,6,1.13,6,4.8s-2.68,5.09-6,5.1h-2.07V65h-3.5Zm5.29,7.11c1.84,0,2.83-.79,2.82-2.31s-1-2-2.83-2h-1.78V56.7ZM167,58.56l2.41-2.25,5,8.72h-3.91Z" transform="translate(0.5 0.5)"/><path class="cls-2" d="M179.27,49.56h4.18L188.33,65h-3.7l-2-7.83c-.44-1.54-.85-3.37-1.27-5h-.09c-.37,1.63-.78,3.44-1.21,5L178,65h-3.58Zm-1.64,9.06h7.44v2.72h-7.44Z" transform="translate(0.5 0.5)"/><path class="cls-2" d="M189,63.06l2-2.41a6.09,6.09,0,0,0,3.8,1.61c1.46,0,2.17-.57,2.17-1.49s-.88-1.29-2.23-1.84l-2-.85a4.51,4.51,0,0,1-3.13-4.21c0-2.57,2.28-4.62,5.5-4.62a7.13,7.13,0,0,1,5,2l-1.76,2.2a5,5,0,0,0-3.21-1.2c-1.21,0-2,.5-2,1.39s1,1.29,2.36,1.82l2,.8a4.27,4.27,0,0,1,3.08,4.2c0,2.57-2.14,4.8-5.82,4.8A8.47,8.47,0,0,1,189,63.06Z" transform="translate(0.5 0.5)"/><path class="cls-2" d="M205.73,52.45h-4.26V49.52l12,0v2.94h-4.25l0,12.53h-3.5Z" transform="translate(0.5 0.5)"/><path class="cls-2" d="M215.89,49.5h3.5l0,15.47h-3.49Z" transform="translate(0.5 0.5)"/><path class="cls-2" d="M223,49.49h3.59l4,7.69,1.54,3.39h.09c-.16-1.63-.45-3.8-.45-5.62V49.47h3.33l0,15.46H231.6l-4-7.71L226,53.86h-.09c.16,1.7.45,3.78.45,5.6V65h-3.33Z" transform="translate(0.5 0.5)"/><path class="cls-2" d="M241.69,49.46h4.18l4.88,15.46h-3.7l-2-7.82c-.44-1.55-.85-3.38-1.27-5h-.09c-.37,1.63-.78,3.44-1.21,5l-2,7.84h-3.57Zm-1.64,9.06h7.44v2.72h-7.44Z" transform="translate(0.5 0.5)"/><path class="cls-2" d="M253.7,52.37h-4.25V49.45l12,0v2.93H257.2l0,12.53h-3.5Z" transform="translate(0.5 0.5)"/><path class="cls-2" d="M263.86,49.42h9.69v2.93h-6.19v3.11h5.27v2.93h-5.27V62h6.43v2.93l-9.93,0Z" transform="translate(0.5 0.5)"/><rect x="18.37" y="111.2" width="264.26" height="64.7"/><path class="cls-3" d="M96.34,134.26h4.19l4.88,15.46h-3.7l-2-7.83c-.43-1.55-.84-3.38-1.26-5h-.1c-.37,1.63-.78,3.45-1.2,5l-2,7.84H91.51Zm-1.64,9.07,7.45,0V146H94.71Z" transform="translate(0.5 0.5)"/><path class="cls-3" d="M114.65,137.16h-4.26v-2.93l12,0v2.93h-4.26l0,12.53h-3.49Z" transform="translate(0.5 0.5)"/><path class="cls-3" d="M123.42,141.88c0-5,2.84-7.95,7-8s7,2.91,7,7.94-2.84,8.09-7,8.1S123.43,146.93,123.42,141.88Zm10.47,0c0-3.11-1.34-4.93-3.45-4.93s-3.44,1.83-3.43,4.94,1.34,5.06,3.45,5.06S133.89,145,133.89,141.87Z" transform="translate(0.5 0.5)"/><path class="cls-3" d="M140.37,134.19h4.37c4.73,0,7.77,2.34,7.78,7.66s-3,7.8-7.56,7.81H140.4Zm4.18,12.64c2.62,0,4.39-1.29,4.39-5s-1.78-4.85-4.4-4.84h-.67l0,9.83Z" transform="translate(0.5 0.5)"/><path class="cls-3" d="M154.72,141.83c0-5.05,2.84-8,7-8s7,2.91,7,7.94-2.84,8.09-7,8.1S154.73,146.88,154.72,141.83Zm10.46,0c0-3.11-1.34-4.93-3.45-4.93s-3.43,1.83-3.43,4.94,1.34,5.06,3.45,5.06S165.19,144.92,165.18,141.82Z" transform="translate(0.5 0.5)"/><path class="cls-3" d="M176.41,134.13h3.5l0,12.53H186v2.93l-9.61,0Z" transform="translate(0.5 0.5)"/><path class="cls-3" d="M188.7,134.11h3.5l0,15.46h-3.5Z" transform="translate(0.5 0.5)"/><path class="cls-3" d="M194.86,147.62l2-2.41a6.09,6.09,0,0,0,3.8,1.61c1.46,0,2.17-.57,2.17-1.49s-.88-1.29-2.23-1.84l-2-.85a4.51,4.51,0,0,1-3.13-4.21c0-2.57,2.28-4.62,5.5-4.62a7.15,7.15,0,0,1,5,2l-1.76,2.2a5,5,0,0,0-3.22-1.2c-1.2,0-2,.5-2,1.39s1,1.29,2.37,1.82l2,.8a4.25,4.25,0,0,1,3.07,4.2c0,2.57-2.13,4.8-5.82,4.8A8.48,8.48,0,0,1,194.86,147.62Z" transform="translate(0.5 0.5)"/><path class="cls-3" d="M211.59,137h-4.26v-2.93l12,0V137h-4.25v12.53h-3.49Z" transform="translate(0.5 0.5)"/><rect class="cls-4" x="0.5" y="0.5" width="300" height="300"/></g></svg>